<svg id="icon_research" xmlns="http://www.w3.org/2000/svg" viewBox="0 0 42 32"><defs><style>.cls-1{fill:#eca2bf;}.cls-2{fill:#cfcae5;}.cls-3{fill:none;stroke:#1a023e;stroke-linecap:round;stroke-linejoin:round;stroke-width:2px;}</style></defs><title>icon-goals</title><rect class="cls-1" x="4.31" y="4.07" width="15.01" height="3.38" rx="1.32"/><rect class="cls-2" x="4.31" y="9.17" width="15.01" height="3.38" rx="1.32"/><rect class="cls-2" x="4.31" y="14.27" width="15.01" height="3.38" rx="1.32"/><rect class="cls-2" x="22.43" y="14.27" width="15.01" height="13.44" rx="1.32"/><rect class="cls-1" x="4.31" y="19.37" width="15.01" height="3.38" rx="1.32"/><rect class="cls-1" x="4.31" y="24.47" width="15.01" height="3.38" rx="1.32"/><line class="cls-3" x1="31.75" y1="6.64" x2="35.48" y2="10.37"/><line class="cls-3" x1="35.48" y1="6.64" x2="31.75" y2="10.37"/><path class="cls-3" d="M16.25,21.21H17a6,6,0,0,0,6-6v-.69a6,6,0,0,1,6-6h0"/><circle class="cls-3" cx="13" cy="21.05" r="2.6"/></svg>